<?xml version="1.0" standalone="no"?><!DOCTYPE svg PUBLIC "-//W3C//DTD SVG 1.1//EN" "http://www.w3.org/Graphics/SVG/1.1/DTD/svg11.dtd"><svg t="1737775853906" class="icon" viewBox="0 0 1024 1024" version="1.1" xmlns="http://www.w3.org/2000/svg" p-id="4996" xmlns:xlink="http://www.w3.org/1999/xlink" width="200" height="200"><path d="M146.773333 424.789333a210.176 210.176 0 0 0 265.941334 322.986667l181.632 181.632a32.981333 32.981333 0 0 0 49.834666-42.965333l-3.2-3.669334-179.925333-180.010666a210.218667 210.218667 0 0 0-314.24-277.973334z m366.293334-339.541333c-202.88 0-372.693333 141.653333-416 331.392a252.245333 252.245333 0 0 1 95.36-74.24A363.733333 363.733333 0 0 1 379.904 174.506667l-4.565333 7.424c-22.912 38.144-41.386667 85.845333-54.4 139.946666 21.333333 2.133333 42.325333 6.997333 62.549333 14.506667 26.965333-112.128 77.781333-187.093333 129.536-187.093333l4.949333 0.256c53.973333 4.949333 106.154667 90.368 130.389334 213.162666l-213.248-0.042666a253.866667 253.866667 0 0 1 66.133333 63.957333l156.714667 0.042667A809.514667 809.514667 0 0 1 652.245333 640h-112.853333a251.008 251.008 0 0 1-12.8 35.882667l-5.461333 11.605333-5.248 9.813333 6.784 6.698667h115.797333a465.066667 465.066667 0 0 1-31.189333 84.650667l47.146666 47.274666c20.992-36.608 38.058667-81.450667 50.304-131.882666l116.181334-0.042667a364.202667 364.202667 0 0 1-159.317334 139.050667l9.6 9.557333 5.290667 5.973333c9.386667 12.586667 14.72 26.624 16.128 40.661334A426.752 426.752 0 0 0 939.818667 512c0-235.690667-191.061333-426.752-426.752-426.752zM397.354667 471.466667a144.213333 144.213333 0 1 1-203.904 203.946666 144.213333 144.213333 0 0 1 203.946666-203.946666zM722.432 426.666667h143.274667l0.298666 1.28c6.4 26.965333 9.813333 55.125333 9.813334 84.053333a361.941333 361.941333 0 0 1-23.253334 128l-135.381333 0.042667A866.133333 866.133333 0 0 0 726.485333 512c0-29.184-1.408-57.728-4.053333-85.333333z m-76.288-252.16l0.981333 0.341333A363.989333 363.989333 0 0 1 843.733333 362.666667h-130.048c-13.397333-74.794667-36.693333-139.904-67.541333-188.16z" fill="#212121" p-id="4997"></path></svg>