<?xml version="1.0" standalone="no"?><!DOCTYPE svg PUBLIC "-//W3C//DTD SVG 1.1//EN" "http://www.w3.org/Graphics/SVG/1.1/DTD/svg11.dtd"><svg t="1737778789013" class="icon" viewBox="0 0 1024 1024" version="1.1" xmlns="http://www.w3.org/2000/svg" p-id="6135" xmlns:xlink="http://www.w3.org/1999/xlink" width="200" height="200"><path d="M512 848C264.59 848 64 622 64 512c0-108.14 200.59-336 448-336s448 226 448 336c0 113.79-200.59 336-448 336z m0-616c-216.5 0-392 225.43-392 280 0 58.35 175.47 280 392 280s392-229.2 392-280c0-48.9-175.5-280-392-280z m0 504c-123.73 0-224-100.29-224-224s100.29-224 224-224 224 100.29 224 224-100.29 224-224 224z m0-392a168 168 0 1 0 168 168 168 168 0 0 0-168-168z" p-id="6136"></path></svg>