<?xml version="1.0" standalone="no"?><!DOCTYPE svg PUBLIC "-//W3C//DTD SVG 1.1//EN" "http://www.w3.org/Graphics/SVG/1.1/DTD/svg11.dtd"><svg t="1737777036393" class="icon" viewBox="0 0 1024 1024" version="1.1" xmlns="http://www.w3.org/2000/svg" p-id="5987" xmlns:xlink="http://www.w3.org/1999/xlink" width="200" height="200"><path d="M491.52 524.0832A197.4272 197.4272 0 1 0 293.4784 327.68 197.632 197.632 0 0 0 491.52 524.0832zM790.7328 627.712a193.7408 193.7408 0 0 1 38.0928 3.8912 163.84 163.84 0 0 0-128.8192-62.6688H282.0096a163.84 163.84 0 1 0 0 328.9088h335.2576a190.464 190.464 0 0 1 173.4656-270.1312z" fill="#333333" p-id="5988"></path><path d="M934.2976 954.5728l-34.816-39.1168a144.384 144.384 0 0 0 37.2736-96.256 146.6368 146.6368 0 1 0-71.8848 125.5424l35.84 40.96a22.3232 22.3232 0 0 0 16.7936 7.5776 21.9136 21.9136 0 0 0 14.7456-5.7344 22.3232 22.3232 0 0 0 2.048-32.9728zM689.7664 819.2a100.9664 100.9664 0 1 1 100.9664 100.9664A101.1712 101.1712 0 0 1 689.7664 819.2z" fill="#333333" p-id="5989"></path></svg>